<?xml version="1.0" encoding="utf-8"?>
<!-- Generator: Adobe Illustrator 24.0.1, SVG Export Plug-In . SVG Version: 6.00 Build 0)  -->
<svg version="1.1" id="Capa_1" xmlns="http://www.w3.org/2000/svg" xmlns:xlink="http://www.w3.org/1999/xlink" x="0px" y="0px"
	 viewBox="0 0 120 145.7" style="enable-background:new 0 0 120 145.7;" xml:space="preserve">
<style type="text/css">
	.st0{fill:#FFFFFF;}
	.st1{fill:#FFA1AC;}
</style>
<rect x="23.5" y="4.2" class="st0" width="73" height="80.7"/>
<title>MICHIPAW logo</title>
<g id="Capa_1_1_">
	<path d="M0.1,131.5v-27.3h8.3l2.3,16.6l2.3-16.6h8.4v27.3h-5v-19.7l-3.1,19.6H8.3L5,111.8v19.6L0.1,131.5z"/>
	<path d="M23.5,131.5v-27.3h5.3v27.3H23.5z"/>
	<path d="M32.5,129.9c-1.3-1.4-1.9-3.3-1.8-5.2v-12.6c0-2.7,0.5-4.8,1.6-6.1c1.3-1.5,3.2-2.2,5.1-2c1.8-0.1,3.5,0.5,4.9,1.7
		c1.3,1.2,2,3,1.8,4.8v4.7h-5.4v-4c0-0.6-0.1-1.1-0.3-1.6c-0.2-0.3-0.6-0.5-1-0.4c-0.4-0.1-0.8,0.2-1,0.5c-0.2,0.5-0.3,1-0.3,1.5
		v13.7c0,0.5,0.1,1.1,0.3,1.6c0.2,0.3,0.6,0.5,1,0.5c0.8,0,1.3-0.7,1.3-2.1v-4.9h5.5v5.1c0,4.6-2.3,6.9-6.9,6.9
		C35.5,131.9,33.8,131.2,32.5,129.9z"/>
	<path d="M46,131.5v-27.3h5.4v9.8H54v-9.8h5.4v27.3H54v-12.4h-2.6v12.4H46z"/>
	<path d="M61.6,131.5v-27.3h5.3v27.3H61.6z"/>
	<path d="M69.1,104.2h7.2c2.2,0,3.7,0.7,4.7,2.1c1,1.9,1.5,4,1.4,6.2c0.1,2.1-0.3,4.2-1.2,6.1c-0.8,1.4-2.3,2.1-4.4,2.1h-2.2v10.8
		h-5.4V104.2z M74.8,115.8c0.5,0,1-0.1,1.4-0.4c0.3-0.3,0.5-0.6,0.6-1c0.1-0.7,0.2-1.3,0.1-2c0-0.8-0.1-1.7-0.4-2.5
		c-0.3-0.5-0.9-0.8-1.5-0.8h-0.6v6.6L74.8,115.8z"/>
	<path d="M83.3,131.5l2.7-27.3h9.2l2.6,27.3h-5.2l-0.4-4.4h-3.3l-0.3,4.4H83.3z M89.3,122.7h2.5l-1.2-13.9h-0.3L89.3,122.7z"/>
	<path d="M101.1,131.5l-2.9-27.3h5.3l1.5,17.2l1.5-17.2h5.1l1.5,17.2l1.5-17.2h5.4l-3,27.3h-6.5l-1.4-13.1l-1.3,13.1H101.1z"/>
	<path d="M0.6,145c-0.4-0.7-0.7-1.5-0.6-2.3v-4.3c-0.1-0.8,0.2-1.5,0.7-2.1c0.6-0.5,1.3-0.8,2.1-0.7c0.6,0,1.2,0.1,1.7,0.4
		c0.4,0.3,0.7,0.7,0.8,1.1c0.2,0.6,0.3,1.2,0.2,1.9H3.4v-0.9c0-0.2,0-0.4-0.1-0.6c-0.1-0.1-0.2-0.2-0.4-0.2c-0.4,0-0.6,0.3-0.6,0.7
		v4.9c0,0.2,0,0.5,0.1,0.7c0.1,0.2,0.3,0.3,0.5,0.2c0.2,0,0.4-0.1,0.5-0.2c0.1-0.2,0.1-0.4,0.1-0.7v-1.4H2.8v-1.7h2.7v5.8H4.7
		l-0.4-0.8c-0.4,0.6-1.1,1-1.9,0.9C1.7,145.8,1,145.5,0.6,145z"/>
	<path d="M7.9,145.6v-10h2.2v10H7.9z"/>
	<path d="M13.5,145.6l-1.4-10h2.2l0.8,6.8l0.7-6.8H18l-1.4,10H13.5z"/>
	<path d="M20.1,145.6v-10h4.5v1.9h-2.2v1.9h2.1v1.9h-2.1v2.3h2.4v1.9L20.1,145.6z"/>
	<path d="M31.7,135.6h3.5c0.5,0,0.9,0.1,1.3,0.3c0.3,0.2,0.5,0.6,0.6,0.9c0.1,0.5,0.2,1,0.2,1.5c0,0.5-0.1,0.9-0.3,1.3
		c-0.2,0.3-0.5,0.6-0.9,0.7c0.3,0,0.6,0.2,0.7,0.5c0.2,0.3,0.3,0.7,0.2,1v3.8h-2.2v-3.9c0-0.3-0.1-0.4-0.2-0.5
		c-0.2-0.1-0.4-0.1-0.7-0.1v4.6h-2.3V135.6z M34.5,139.3c0.3,0,0.5-0.3,0.5-0.9c0-0.2,0-0.4,0-0.6c0-0.1-0.1-0.2-0.1-0.3
		c-0.1-0.1-0.2-0.1-0.3-0.1H34v1.8L34.5,139.3z"/>
	<path d="M39.5,145.6v-10H44v1.9h-2.3v1.9h2.1v1.9h-2.1v2.3h2.4v1.9L39.5,145.6z"/>
	<path d="M46.4,135.6h3.1c0.7-0.1,1.3,0.2,1.8,0.6c0.4,0.5,0.7,1.1,0.6,1.8v4.7c0.1,0.8-0.1,1.6-0.6,2.2c-0.5,0.6-1.3,0.8-2,0.7h-3
		L46.4,135.6z M49.1,143.9c0.4,0,0.6-0.2,0.6-0.5v-5.1c0-0.2,0-0.3-0.1-0.5c0-0.1-0.1-0.2-0.2-0.2c-0.2,0-0.3-0.1-0.5-0.1h-0.3v6.5
		L49.1,143.9z"/>
	<path d="M54.4,145.6v-10h4.5v1.9h-2.2v1.9h2.1v1.9h-2.1v2.3H59v1.9L54.4,145.6z"/>
	<path d="M61.3,145.6v-10h4.5v1.9h-2.2v1.9h2.1v1.9h-2.1v2.3H66v1.9L61.3,145.6z"/>
	<path d="M68.2,145.6v-10h3.4l0.9,6.1l0.9-6.1H77v10h-2v-7.2l-1.3,7.2h-2l-1.4-7.2v7.2H68.2z"/>
	<path d="M84.1,145.6v-10h4.5v1.9h-2.2v1.9h2.1v1.9h-2.1v2.3h2.4v1.9L84.1,145.6z"/>
	<path d="M91.1,145.6v-10h2.3l1,4.8v-4.8h2.2v10h-2.2l-1.1-5v5H91.1z"/>
	<path d="M100.2,145.4c-0.4-0.2-0.7-0.4-1-0.8c-0.3-0.4-0.4-0.8-0.4-1.3v-2.5h2.2v2.4c0,0.2,0,0.3,0.1,0.4c0.1,0.1,0.2,0.2,0.4,0.1
		c0.1,0,0.3,0,0.4-0.1c0.1-0.1,0.1-0.3,0.1-0.4v-7.7h2.3v7.5c0,0.5-0.1,0.9-0.3,1.4c-0.2,0.4-0.6,0.7-1,0.9
		c-0.4,0.2-0.9,0.3-1.4,0.3C101.1,145.7,100.7,145.6,100.2,145.4z"/>
	<path d="M107.4,145c-0.5-0.6-0.8-1.3-0.7-2.1v-4.8c-0.1-0.7,0.2-1.5,0.7-2c1.2-0.9,2.9-0.9,4.1,0c0.5,0.5,0.8,1.3,0.7,2v4.8
		c0.1,0.8-0.2,1.5-0.7,2.1c-0.6,0.5-1.3,0.8-2.1,0.7C108.7,145.8,107.9,145.5,107.4,145z M109.9,143.7c0.1-0.2,0.1-0.4,0.1-0.6v-4.9
		c0-0.2,0-0.4-0.1-0.5c-0.1-0.1-0.2-0.2-0.4-0.2c-0.4,0-0.6,0.3-0.6,0.8v4.8c0,0.2,0,0.4,0.1,0.6c0.1,0.2,0.3,0.2,0.4,0.2
		C109.6,143.9,109.8,143.8,109.9,143.7L109.9,143.7z"/>
	<path d="M116,145.6v-3.3l-1.8-6.7h2.2l0.6,3.4l0.6-3.4h2.2l-1.8,6.7v3.3H116z"/>
	<path class="st1" d="M96.3,0H23.7c-4.5,0-8.1,3.6-8.1,8.1v72.6c0,4.5,3.6,8.1,8.1,8.1h72.7c4.5,0,8.1-3.6,8.1-8.1V8.1
		C104.4,3.6,100.8,0,96.3,0z M87,40c-1.2,1.3-1.9,3-1.9,4.7c0,10.5,0,21.1,0,31.6c0.1,1.6-0.6,3.1-2,4c-0.8,0.5-1.7,0.7-2.6,0.6
		c-6.9,0-13.8,0-20.7,0c-6.7,0-13.4-0.1-20.1,0c-3.3,0-5-1.8-5.1-5.1c0-0.6,0-1.1,0-1.7c0-10,0-19.9,0-29.9c0-1.6-0.6-3.2-1.7-4.4
		c-4.7-4.9-4.4-12.7,0.5-17.4c1.2-1.2,2.7-2.1,4.3-2.6c2.8-1,5.9-0.9,8.7,0.2c1.1,0.5,1.4,0.4,1.4-0.8C47.9,11,58.1,4.1,67,10
		c3.1,2,5.1,5.4,5.2,9.1c0.1,1.5,0.2,1.5,1.6,1c6.2-2.5,13.3,0.5,15.8,6.7c0.3,0.7,0.5,1.5,0.7,2.3C91.1,33.1,89.8,37.2,87,40z"/>
	<path class="st1" d="M61.1,34.8c-3.7,0-6,1.3-7.2,3.8c-0.9,1.8-2.3,3.2-4.1,4.1c-2.4,1.2-3.8,3.7-3.6,6.3c0.1,3.8,3.3,6.7,7.1,6.6
		c1.1,0,2.2-0.4,3.2-0.9c2.5-1.6,4.9-1.4,7.4,0.1c2.3,1.4,5.4,1.2,7.4-0.6c2-1.5,3-4,2.6-6.4c-0.3-2.3-1.7-4.3-3.8-5.2
		c-1.7-0.8-3-2.1-3.7-3.8C65.4,36.6,63.4,35.1,61.1,34.8z"/>
	<path class="st1" d="M66.2,20.2c0.1-3.4-2.6-6.3-6-6.4c-0.1,0-0.1,0-0.2,0c-3.5,0.1-6.3,2.9-6.3,6.3c0.1,3.4,2.9,6.2,6.3,6.2
		c3.4,0,6.2-2.7,6.2-6C66.2,20.3,66.2,20.3,66.2,20.2z"/>
	<path class="st1" d="M84.3,31.5c0-3.4-2.8-6.2-6.2-6.2c-3.4,0-6.2,2.8-6.2,6.2c0,3.4,2.8,6.2,6.2,6.2c3.4,0,6.2-2.7,6.2-6.1
		C84.3,31.6,84.3,31.6,84.3,31.5z"/>
	<path class="st1" d="M42,37.7c3.4,0.1,6.2-2.6,6.2-5.9c0-0.1,0-0.1,0-0.2c0-3.5-2.8-6.2-6.3-6.3c-3.4,0.1-6.1,2.8-6.2,6.2
		C35.7,34.9,38.5,37.7,42,37.7C42,37.7,42,37.7,42,37.7z"/>
</g>
</svg>
