<svg xmlns="http://www.w3.org/2000/svg">
	<symbol id="contacts-icon" viewBox="0 0 82.8 60">
		<g>
			<path d="M82.8,54.8c-1.1,3.1-3.6,4.4-6.6,4.8c-3.5,0.5-7.1,0.1-10.6,0.2c-0.4,0-0.6-0.2-0.6-0.6c-0.2-5.9-3.2-10.5-7.1-14.7
				c-2.2-2.3-4.6-4.3-7.2-6.2c-0.2-0.1-0.5-0.2-0.5-0.5c0-0.3,0.4-0.3,0.6-0.3c11.7-2.3,21.6,0.7,29.4,9.8c1.2,1.4,2,3,2.6,4.8
				C82.8,53.1,82.8,53.9,82.8,54.8z"/>
			<path d="M55.6,59.9C40.1,60.1,24,59.9,7.9,60c-2.3,0-4.4-0.5-6.1-2.2C0,56-0.4,53.9,0.5,51.6c1.7-4.3,4.5-7.8,8.1-10.6
				c5-3.9,10.7-6,17-6.6c9.6-0.9,18,2,25.4,8c3.3,2.7,6.4,5.6,8.6,9.3c1.3,2.2,2.2,4.6,2.4,7.2c0.1,0.7-0.1,1-0.9,1
				C59.4,59.8,57.8,59.9,55.6,59.9z"/>
			<path d="M28.8,29.2c-8.1,0-14.7-6.5-14.7-14.6c0-8.2,6.5-14.6,14.7-14.7c7.4-0.1,14.7,5.8,14.7,14.6C43.5,23,36.7,29.2,28.8,29.2z"
				/>
			<path d="M58.2,35c-6.6,0-11.9-5.3-11.9-11.9c0-6.5,5.4-11.9,12-11.9c6.5,0,11.9,5.4,11.9,12C70.2,29.8,64.9,35,58.2,35z"/>
		</g>
	</symbol>
</svg>