<?xml version="1.0" encoding="utf-8"?>
<!-- Generator: Adobe Illustrator 24.0.1, SVG Export Plug-In . SVG Version: 6.00 Build 0)  -->
<svg version="1.1" id="Capa_1" xmlns="http://www.w3.org/2000/svg" xmlns:xlink="http://www.w3.org/1999/xlink" x="0px" y="0px"
	 viewBox="0 0 16 16" style="enable-background:new 0 0 16 16;" xml:space="preserve">
<style type="text/css">
	.st0{fill-rule:evenodd;clip-rule:evenodd;fill:#FFFFFF;}
</style>
<path class="st0" d="M13.7,3.4c0.3-0.3,0.3-0.8,0-1c-0.3-0.3-0.8-0.3-1,0L9.5,5.5C9.1,5.2,8.5,5,8,5C6.4,5,5,6.4,5,8
	c0,0.5,0.1,1.1,0.4,1.5l-3.1,3.1c-0.3,0.3-0.3,0.8,0,1c0.3,0.3,0.8,0.3,1,0l3.1-3.1C6.9,10.8,7.5,11,8,11c1.6,0,3-1.3,3-3
	c0-0.5-0.1-1.1-0.4-1.5L13.7,3.4z M8.4,6.6c-0.1,0-0.2,0-0.4,0C7.2,6.5,6.5,7.2,6.5,8c0,0.1,0,0.3,0,0.4L8.4,6.6z M7.6,9.4l1.8-1.8
	c0,0.1,0,0.2,0,0.4c0,0.8-0.7,1.5-1.5,1.5C7.9,9.5,7.7,9.5,7.6,9.4z M10.8,2.7C9.9,2.3,9,2.1,8,2.1c-2.1,0-3.9,1-5.2,2.1
	c-1.3,1.1-2.2,2.4-2.6,3c-0.3,0.5-0.3,1.1,0,1.5c0.3,0.5,1,1.5,2,2.5l1-1C2.4,9.3,1.8,8.5,1.5,8c0.4-0.6,1.2-1.7,2.3-2.6
	C5,4.4,6.4,3.6,8,3.6c0.6,0,1.1,0.1,1.6,0.3L10.8,2.7z M8,12.4c-0.6,0-1.1-0.1-1.6-0.3l-1.1,1.1C6.1,13.7,7,13.9,8,13.9
	c2.1,0,3.9-1,5.2-2.1c1.3-1.1,2.2-2.4,2.6-3c0.3-0.5,0.3-1.1,0-1.5c-0.3-0.5-1-1.5-2-2.5l-1,1c0.9,0.8,1.5,1.7,1.8,2.2
	c-0.4,0.6-1.2,1.7-2.3,2.6C11,11.6,9.6,12.4,8,12.4z"/>
</svg>
