<?xml version="1.0" encoding="utf-8"?>
<!-- Generator: Adobe Illustrator 24.0.1, SVG Export Plug-In . SVG Version: 6.00 Build 0)  -->
<svg version="1.1" id="Capa_1" xmlns="http://www.w3.org/2000/svg" xmlns:xlink="http://www.w3.org/1999/xlink" x="0px" y="0px"
	 viewBox="0 0 16 16" style="enable-background:new 0 0 16 16;" xml:space="preserve">
<style type="text/css">
	.st0{fill-rule:evenodd;clip-rule:evenodd;fill:#FFFFFF;}
</style>
<path class="st0" d="M3.8,10.6c-1.1-0.9-1.9-2-2.3-2.6c0.4-0.6,1.2-1.7,2.3-2.6C5,4.4,6.4,3.7,8,3.7s3,0.8,4.2,1.8
	c1.1,1,1.9,2.1,2.3,2.6c-0.4,0.6-1.2,1.7-2.3,2.6c-1.2,1-2.6,1.8-4.2,1.8S5,11.6,3.8,10.6z M8,2.2c-2.1,0-3.9,1-5.2,2.1
	s-2.2,2.4-2.6,3c-0.3,0.5-0.3,1.1,0,1.5c0.4,0.6,1.3,1.9,2.6,3s3.1,2.1,5.2,2.1s3.9-1,5.2-2.1s2.2-2.4,2.6-3c0.3-0.5,0.3-1.1,0-1.5
	c-0.4-0.6-1.3-1.9-2.6-3S10.1,2.2,8,2.2z M6.5,8.1c0-0.8,0.7-1.5,1.5-1.5s1.5,0.7,1.5,1.5S8.8,9.6,8,9.6S6.5,8.9,6.5,8.1z M8,5.1
	c-1.6,0-3,1.4-3,3s1.3,3,3,3c1.6,0,3-1.3,3-3C11,6.5,9.6,5.1,8,5.1z"/>
</svg>
