<svg xmlns="http://www.w3.org/2000/svg">
    <symbol id="michipaw-icon" viewBox="0 0 50.1 60">
        <path
            d="M52.1,26.4c2.3-2.3,3.4-5.7,2.7-8.9c-0.2-0.7-0.3-1.3-0.6-1.9c-2.1-5.1-7.9-7.5-13-5.5c-1.1,0.4-1.2,0.4-1.3-0.8c-0.1-3-1.7-5.8-4.3-7.5C28.4-3,20,2.6,20,9.4c0,1-0.2,1.1-1.1,0.7c-2.3-0.9-4.8-1-7.1-0.2C10.4,10.3,9.1,11,8.1,12c-4,3.9-4.3,10.3-0.4,14.3c0.9,1,1.4,2.3,1.4,3.6c0,8.2,0,16.3,0,24.5c0,0.5,0,0.9,0,1.4c0.1,2.7,1.5,4.2,4.2,4.2c5.5-0.1,11,0,16.5,0c5.7,0,11.3,0,17,0c0.7,0.1,1.5-0.1,2.1-0.5c1.1-0.7,1.7-2,1.6-3.3c0-8.6,0-17.3,0-25.9C50.6,28.9,51.1,27.5,52.1,26.4z M30,4.9c0.1,0,0.1,0,0.2,0c2.8,0.1,5,2.5,4.9,5.3c0,0.1,0,0.1,0,0.1c0,2.7-2.3,4.9-5.1,4.9s-5.1-2.3-5.2-5.1C24.8,7.3,27.1,5,30,4.9z M15.2,24.5c-2.9,0-5.2-2.3-5.2-5.1c0.1-2.8,2.3-5,5.1-5.1c2.9,0.1,5.2,2.3,5.2,5.2c0,0.1,0,0.1,0,0.2C20.3,22.4,18,24.6,15.2,24.5z M39.2,38.1c-1.6,1.5-4.2,1.6-6.1,0.5c-2.1-1.2-4-1.4-6.1-0.1c-0.8,0.4-1.7,0.7-2.6,0.7c-3.1,0.1-5.7-2.3-5.8-5.4c-0.2-2.1,1-4.2,3-5.2c1.5-0.7,2.6-1.9,3.4-3.4c1-2.1,2.9-3.1,5.9-3.1c1.9,0.2,3.5,1.5,4.3,3.3c0.6,1.4,1.6,2.5,3,3.1c1.7,0.7,2.9,2.4,3.1,4.3C41.7,34.8,40.9,36.8,39.2,38.1z M49.9,19.5c0,2.8-2.3,5-5.1,5c-2.8,0-5.1-2.3-5.1-5.1c0-2.8,2.3-5.1,5.1-5.1C47.6,14.4,49.9,16.7,49.9,19.5C49.9,19.5,49.9,19.5z" />
    </symbol>
</svg>