<?xml version="1.0" encoding="utf-8"?>
<!-- Generator: Adobe Illustrator 24.0.1, SVG Export Plug-In . SVG Version: 6.00 Build 0)  -->
<svg version="1.1" x="0px" y="0px" viewBox="0 0 50.1 60">
<path d="M47.2,26.4c2.3-2.3,3.4-5.7,2.7-8.9c-0.2-0.7-0.3-1.3-0.6-1.9c-2.1-5.1-7.9-7.5-13-5.5c-1.1,0.4-1.2,0.4-1.3-0.8
	c-0.1-3-1.7-5.8-4.3-7.5C23.5-3,15.1,2.6,15.1,9.4c0,1-0.2,1.1-1.1,0.7c-2.3-0.9-4.8-1-7.1-0.2C5.5,10.3,4.2,11,3.2,12
	c-4,3.9-4.3,10.3-0.4,14.3c0.9,1,1.4,2.3,1.4,3.6c0,8.2,0,16.3,0,24.5c0,0.5,0,0.9,0,1.4C4.3,58.5,5.7,60,8.4,60
	c5.5-0.1,11,0,16.5,0c5.7,0,11.3,0,17,0c0.7,0.1,1.5-0.1,2.1-0.5c1.1-0.7,1.7-2,1.6-3.3c0-8.6,0-17.3,0-25.9
	C45.7,28.9,46.2,27.5,47.2,26.4z M25.1,4.9c0.1,0,0.1,0,0.2,0c2.8,0.1,5,2.5,4.9,5.3c0,0.1,0,0.1,0,0.1c0,2.7-2.3,4.9-5.1,4.9
	s-5.1-2.3-5.2-5.1C19.9,7.3,22.2,5,25.1,4.9z M10.3,24.5c-2.9,0-5.2-2.3-5.2-5.1c0.1-2.8,2.3-5,5.1-5.1c2.9,0.1,5.2,2.3,5.2,5.2
	c0,0.1,0,0.1,0,0.2C15.4,22.4,13.1,24.6,10.3,24.5z M34.3,38.1c-1.6,1.5-4.2,1.6-6.1,0.5c-2.1-1.2-4-1.4-6.1-0.1
	c-0.8,0.4-1.7,0.7-2.6,0.7c-3.1,0.1-5.7-2.3-5.8-5.4c-0.2-2.1,1-4.2,3-5.2c1.5-0.7,2.6-1.9,3.4-3.4c1-2.1,2.9-3.1,5.9-3.1
	c1.9,0.2,3.5,1.5,4.3,3.3c0.6,1.4,1.6,2.5,3,3.1c1.7,0.7,2.9,2.4,3.1,4.3C36.8,34.8,36,36.8,34.3,38.1z M45,19.5c0,2.8-2.3,5-5.1,5
	c-2.8,0-5.1-2.3-5.1-5.1s2.3-5.1,5.1-5.1C42.7,14.4,45,16.7,45,19.5L45,19.5z"/>
</svg>
