<?xml version="1.0" encoding="utf-8"?>
<!-- Generator: Adobe Illustrator 24.0.1, SVG Export Plug-In . SVG Version: 6.00 Build 0)  -->
<svg version="1.1" id="Capa_1" xmlns="http://www.w3.org/2000/svg"
	xmlns:xlink="http://www.w3.org/1999/xlink" x="0px" y="0px"
	viewBox="0 0 64.7 60" style="enable-background:new 0 0 64.7 60;" xml:space="preserve">
<g>
	<path d="M50.5,59.8c-2.4,0-4.7,0-7.1,0c-0.9,0-1-0.1-1-1c0-3.7,0-7.5-0.1-11.2c-0.1-5.5-0.1-11-0.1-16.5c0-1.1,0-1.1,1.1-1.2
		c0.9-0.1,1.7-0.1,2.7-0.1c3.2,0,6.4-0.1,9.6-0.1c0.5,0,0.6-0.1,0.4-0.6c-2-3.6-4.1-7.3-6.1-10.9c-1.3-2.4-2.7-4.7-4-7.1
		c-0.3-0.5-0.6-0.7-1.2-0.6c-3.5,0-7,0-10.5,0.1c-5.1,0.1-10.4,0-15.5,0.1c-1.5,0-3,0.1-4.4,0.1c-0.6,0-0.7,0.1-0.4,0.6
		c1,1.7,1.9,3.5,2.9,5.2c0.4,0.7,0.3,0.9-0.5,1c-1.3,0.2-2.6,0.3-3.7,0.6c-1,0.2-1.2,0.1-1.6-0.7C10,15.7,9,13.9,8,12.1
		c-0.5-1-0.7-1.8-0.3-2.8c0.7-2.5,1.8-4.7,3.6-6.6c1.6-1.6,3.5-2.6,5.9-2.6c3.1-0.1,6.3-0.1,9.4,0c5,0.1,10,0.2,15,0.3
		c2.9,0.1,5.9,0.2,8.8,0.2c1.3,0,2.5,0.1,3.7,0.2c1.7,0.2,3.1,1.1,4.4,2.2c3.4,3.1,5.2,7.1,6,11.6c0.7,4.5,0.1,8.8-2.1,12.7
		c-0.5,1-1.1,1.8-1.7,2.7c-0.4,0.4-0.5,1-0.5,1.6c-0.1,4.3-0.3,8.5-0.5,12.7c-0.1,3.1-0.3,6.2-0.4,9.2c-0.1,1.8-0.2,3.7-0.2,5.6
		c0,0.5-0.3,0.9-0.9,0.9C55.2,59.8,52.9,59.8,50.5,59.8L50.5,59.8z"/>
	<path d="M13.6,30.3c4.5,0.1,9.1-0.1,13.6-0.2c3.1-0.1,6.3,0,9.4-0.1c1,0,1,0,1,1c0.3,3.2,0.3,6.5,0.5,9.7c0.1,1.8,0.2,3.6,0.3,5.5
		c0.2,3.6,0.3,7.3,0.6,10.8c0.1,0.7,0,1.4,0,2.1c0,0.4-0.2,0.6-0.6,0.6c-3.3,0-6.5,0-9.8-0.1c-3-0.1-6,0-9,0c-5.1,0-10.3,0-15.4,0
		c-1.1,0-1.1,0-1.2-1.1c-0.3-2.8-0.6-5.6-0.9-8.2c-0.2-2.6-0.5-5-0.9-7.6c-0.3-2.6-0.5-5.2-0.9-7.8c-0.1-1.2-0.3-2.4-0.4-3.6
		c-0.1-0.9,0-1,0.9-1C5.3,30.4,9.5,30.1,13.6,30.3z M21.2,50.8v0.1c0.4,0,0.7,0,1.2,0c0.5,0,0.6-0.2,0.6-0.6c-0.2-1-0.3-1.9-0.4-2.9
		c-0.2-1.1-0.3-1.9,0.6-2.9c1.2-1.1,1.1-3.4,0.1-4.9c-1-1.4-2.7-1.8-4.4-1.4c-2.9,0.7-3.7,4.7-1.5,6.7c0.3,0.3,0.5,0.6,0.4,1.2
		c-0.1,1.4-0.2,2.7-0.3,4.1c0,0.5,0.1,0.6,0.5,0.6C19.1,50.8,20.2,50.8,21.2,50.8z"/>
	<path d="M8.2,27.4c-0.9,0-1.8,0-2.7,0c-0.5,0-0.6-0.2-0.4-0.6c1-1.6,2-3.2,3.1-4.9c0.2-0.3,0.5-0.4,1-0.4c2.1-0.1,4.4-0.2,6.5-0.3
		c0.7,0,1.5-0.1,2.2-0.1c0.3,0,0.6-0.2,0.9-0.4c1.6-1.2,3.2-2.4,4.8-3.5c0.4-0.3,0.7-0.3,1.3,0c1.4,0.7,2.8,1.5,4.3,2.4
		c0.3,0.2,0.6,0.2,1.1,0.1c2.7-0.5,5.2-1.1,7.9-1.7c0.7-0.1,1.2,0,1.6,0.5c0.3,0.5,0.7,1,1.2,1.5c0.3,0.6,0.9,0.9,1.6,1
		c0.7,0,1.4,0.1,2.1,0.1c0.4,0,0.6,0.1,0.9,0.4c1,1.4,1.9,2.9,2.9,4.3c0.1,0.2,0.3,0.3,0.2,0.6c-0.1,0.3-0.4,0.1-0.6,0.2
		c-4.2,0.2-8.5,0.2-12.6,0.3c-3.9,0.1-7.6,0.1-11.4,0.2s-7.8,0.2-11.7,0.2C10.7,27.3,9.5,27.4,8.2,27.4z"/>
</g>
</svg>